<svg width="25" height="24" viewBox="0 0 25 24" fill="none" xmlns="http://www.w3.org/2000/svg">
<path d="M12.5 0.994507C5.97676 0.994507 0.6875 6.08787 0.6875 12.3695C0.6875 18.6511 5.97676 23.7445 12.5 23.7445C19.0232 23.7445 24.3125 18.6511 24.3125 12.3695C24.3125 6.08787 19.0232 0.994507 12.5 0.994507ZM16.8427 17.7574C16.8137 17.7701 16.782 17.7777 16.7504 17.7777H15.1156C15.0339 17.7777 14.9601 17.732 14.9258 17.6609L12.9588 13.6187H10.62V17.5746C10.62 17.6863 10.5251 17.7777 10.4091 17.7777H8.9668C8.85078 17.7777 8.75586 17.6863 8.75586 17.5746V7.16443C8.75586 7.05271 8.85078 6.9613 8.9668 6.9613H13.0695C15.6746 6.9613 16.8717 8.4822 16.8717 10.29C16.8717 12.0724 15.7221 12.9916 14.8045 13.3166L16.935 17.4857C16.9903 17.5847 16.9455 17.7066 16.8427 17.7574ZM12.8138 8.43396H10.6147V12.1918H12.7637C14.1611 12.1918 14.9469 11.5418 14.9469 10.3535C14.9469 9.07634 14.0794 8.43396 12.8138 8.43396Z" fill="black"/>
</svg>
